<?xml version="1.0" encoding="utf-8"?>
<!-- Generator: Adobe Illustrator 24.0.1, SVG Export Plug-In . SVG Version: 6.00 Build 0)  -->
<svg version="1.1" id="Layer_1" xmlns="http://www.w3.org/2000/svg" xmlns:xlink="http://www.w3.org/1999/xlink" x="0px" y="0px"
	 viewBox="0 0 785 336" style="enable-background:new 0 0 785 336;" xml:space="preserve">
<style type="text/css">
	.st0{fill:none;}
	.st1{fill:#FFFFFF;}
	.st2{fill-rule:evenodd;clip-rule:evenodd;fill:#FFE200;stroke:#000000;stroke-width:10;stroke-linejoin:round;}
	.st3{fill-rule:evenodd;clip-rule:evenodd;fill:url(#path849_1_);}
	.st4{fill-rule:evenodd;clip-rule:evenodd;fill:#442400;}
	.st5{fill-rule:evenodd;clip-rule:evenodd;fill:url(#path853_1_);fill-opacity:0.75;}
</style>
<title>BBCBank-logo</title>
<rect x="576.5" y="22.1" class="st0" width="0" height="3"/>
<path class="st1" d="M68,99.9c0,10.5-8.2,21.3-17.3,23.9v0.6c0,0,22,5.3,22,26.1c0,21.8-14.6,31.6-41,31.6h-27
	c-3.3,0-4.7-1.4-4.7-4.7V76.8c0-3.3,1.4-4.7,4.7-4.7h28.1C56.2,72.1,68,83.4,68,99.9z M13.8,84v35.5H32c12.7,0,21.7-8.2,21.7-18.4
	c0-11.6-6.6-17.1-22.3-17.1L13.8,84z M13.8,131.5v38.7h23c14,0,21.7-7.9,21.7-20.3c0-11.5-8.2-18.4-24.3-18.4L13.8,131.5z"/>
<path class="st1" d="M161.1,99.9c0,10.5-8.2,21.3-17.3,23.9v0.6c0,0,22,5.3,22,26.1c0,21.8-14.6,31.6-41,31.6h-27
	c-3.3,0-4.7-1.4-4.7-4.7V76.8c0-3.3,1.4-4.7,4.7-4.7h28.1C149.3,72.1,161.1,83.4,161.1,99.9z M106.9,84v35.5h18.2
	c12.7,0,21.6-8.2,21.6-18.4c0-11.6-6.6-17.1-22.3-17.1L106.9,84z M106.9,131.5v38.7h22.9c14,0,21.7-7.9,21.7-20.3
	c0-11.5-8.2-18.4-24.3-18.4L106.9,131.5z"/>
<path class="st1" d="M260.8,80.9c0,2.7-3.3,9.1-5.3,9.1c-1.7,0-9.3-6.9-24.3-6.9c-25.1,0-36.9,13.2-36.9,44.1
	c0,30.1,11.6,43.8,36.3,43.8c16.2,0,25-7.9,27-7.9c2,0,5.5,6.6,5.5,8.5c0,4.2-14.1,11.3-32.5,11.3c-34.4,0-50.6-17.6-50.6-55.9
	c0-37.5,17.3-55.9,50.9-55.9C246.3,71.2,260.8,76.7,260.8,80.9z"/>
<path class="st1" d="M351.4,99.9c0,10.5-8.2,21.3-17.3,23.9v0.6c0,0,22,5.3,22,26.1c0,21.8-14.6,31.6-41,31.6h-27
	c-3.3,0-4.7-1.4-4.7-4.7V76.8c0-3.3,1.4-4.7,4.7-4.7h28.1C339.6,72.1,351.4,83.4,351.4,99.9z M297.2,84v35.5h18.2
	c12.7,0,21.7-8.2,21.7-18.4c0-11.6-6.6-17.1-22.3-17.1H297.2z M297.2,131.5v38.7h22.9c14,0,21.7-7.9,21.7-20.3
	c0-11.5-8.2-18.4-24.3-18.4L297.2,131.5z"/>
<path class="st1" d="M434.3,123.6v35.2c-0.1,6.6,0.5,13.3,1.9,19.8c0,3-6.4,3.6-8.5,3.6c-3.8,0-4.5-6.6-5.5-11
	c-6.7,7.6-16.3,11.9-26.4,11.8c-15.2,0-26.9-7.4-26.9-23.6c0-26.5,28.1-28.3,52.1-28.6v-7.4c0-7.1-4.2-13.2-17.3-13.2
	c-14.3,0-22.9,6.6-24.5,6.6c-2.2,0-5.5-6.1-5.5-7.8c0-4.1,13.8-10,29.5-10C422.8,99,434.3,108.1,434.3,123.6z M383.1,158.6
	c0,8.3,4.5,12.9,13.4,12.9c11.5,0,18.4-5.2,24.6-10.8v-18.5C404.8,142.3,383.1,142.3,383.1,158.6L383.1,158.6z"/>
<path class="st1" d="M522.5,124.4v54.5c0,2.2-1.9,3.4-6.3,3.4h-0.6c-4.4,0-6.3-1.3-6.3-3.4v-53.2c0-9.6-5.8-15.2-16-15.2
	c-7.1,0-14.6,4.2-19.8,11v57.5c0,2.2-1.9,3.4-6.3,3.4h-0.6c-4.4,0-6.3-1.3-6.3-3.4v-55.1c0.1-6.6-0.5-13.3-1.9-19.8
	c0-3,6.4-3.6,8.5-3.6c3.8,0,4.5,6.3,5.5,10.4c6.6-7.4,15.7-11.8,24.5-11.8C512.9,99,522.5,108.5,522.5,124.4z"/>
<path class="st1" d="M562.2,67.4v70.2h0.6l30-35.8c1.4-1.7,4.9-2.2,8.3-2.2h0.6c3.8,0,5.5,0.9,5.5,2c-0.2,1.2-0.7,2.3-1.6,3.1
	l-29.2,34.5l32.3,38.3c1.1,1.3,1.4,1.9,1.4,2.5c0,1.7-2,2.2-6.9,2.2h-0.6c-3.5,0-6.9-0.1-8.5-2l-31.4-37.2h-0.6v35.8
	c0,2.2-1.9,3.4-6.3,3.4h-0.6c-4.4,0-6.3-1.3-6.3-3.4V67.4c0-2.2,1.9-3.5,6.3-3.5h0.6C560.3,63.9,562.2,65.2,562.2,67.4z"/>
<g id="g845">
	<path id="path847" class="st2" d="M708.6,40.2c-18.8-17.5,31.3-30,37.5-23.8c10,5-8.8,8.8-7.5,17.5s0,55,10,57.5
		s22.5,11.3,22.5,23.8c31.3,77.5-91.3,290-381.3,183.7c-5-3.8-32.5-35-37.5-42.5c-2.5-8.7-6.3-30,8.8-37.5
		c128.8-33.8,277.5,32.5,345-118.8C717.3,74,708.6,40.2,708.6,40.2z"/>
	
		<linearGradient id="path849_1_" gradientUnits="userSpaceOnUse" x1="8.2344" y1="521.472" x2="9.3337" y2="522.1245" gradientTransform="matrix(348.75 0 0 -148.4021 -2390.5 77602.3125)">
		<stop  offset="0" style="stop-color:#FFFFFF;stop-opacity:0.525"/>
		<stop  offset="1" style="stop-color:#FFFFFF;stop-opacity:0"/>
	</linearGradient>
	<path id="path849" class="st3" d="M363.6,236.5l2.5-12.5c92.5-35,263.8,38.7,346.3-120C671.1,216.5,598.6,285.2,363.6,236.5z"/>
	<path id="path851" class="st4" d="M706,35.6c2.9-17.6,29.1-18.1,36.4-18.9C754.4,18.2,726.9,38.1,706,35.6z"/>
	<path id="path852" class="st4" d="M352.3,251.6c-0.9-18.4-1.9-24.4,8.7-30.5C365.7,228,364.8,249.5,352.3,251.6z"/>
	
		<linearGradient id="path853_1_" gradientUnits="userSpaceOnUse" x1="7.9802" y1="522.265" x2="8.9802" y2="522.265" gradientTransform="matrix(319.1594 0 0 -214.0429 -2093.3655 112005.5859)">
		<stop  offset="0" style="stop-color:#FFFFFF;stop-opacity:0"/>
		<stop  offset="1" style="stop-color:#5F0E00;stop-opacity:0.4167"/>
	</linearGradient>
	<path id="path853" class="st5" d="M453.6,312.7c218.8,55,293-83.1,306.3-116.2c22.5-40,8.8-85,8.8-85
		C767.3,246.5,626.1,355.2,453.6,312.7z"/>
</g>
</svg>
