<svg id="Layer_1" data-name="Layer 1" xmlns="http://www.w3.org/2000/svg" viewBox="0 0 610.25 160.83"><defs><style>.cls-1{fill:none;}.cls-2{fill:#fff;}</style></defs><title>BBCBank-logo</title><rect class="cls-1" x="576.48" height="3"/><path class="cls-2" d="M83.21,77.78c0,10.52-8.17,21.35-17.27,23.86v.63s22,5.34,22,26.06c0,21.83-14.6,31.56-41,31.56h-27c-3.3,0-4.71-1.41-4.71-4.71V54.7c0-3.3,1.41-4.71,4.71-4.71H48C71.43,50,83.21,61.3,83.21,77.78ZM29,61.92V97.4H47.26C60,97.4,68.92,89.24,68.92,79c0-11.62-6.59-17.12-22.29-17.12Zm0,47.42V148H52c14,0,21.66-7.85,21.66-20.25,0-11.47-8.16-18.37-24.33-18.37Z" transform="translate(-15.23 0)"/><path class="cls-2" d="M176.31,77.78c0,10.52-8.17,21.35-17.27,23.86v.63s22,5.34,22,26.06c0,21.83-14.6,31.56-41,31.56H113c-3.3,0-4.71-1.41-4.71-4.71V54.7c0-3.3,1.41-4.71,4.71-4.71h28.1C164.53,50,176.31,61.3,176.31,77.78ZM122.14,61.92V97.4h18.22C153.07,97.4,162,89.24,162,79c0-11.62-6.59-17.12-22.29-17.12Zm0,47.42V148h22.93c14,0,21.66-7.85,21.66-20.25,0-11.47-8.16-18.37-24.33-18.37Z" transform="translate(-15.23 0)"/><path class="cls-2" d="M276,58.78c0,2.67-3.3,9.11-5.34,9.11-1.72,0-9.26-6.91-24.33-6.91-25.12,0-36.9,13.19-36.9,44.12,0,30.14,11.62,43.8,36.27,43.8,16.17,0,25-7.85,27-7.85s5.5,6.59,5.5,8.48c0,4.24-14.13,11.3-32.5,11.3-34.38,0-50.55-17.58-50.55-55.89,0-37.52,17.27-55.89,50.86-55.89C261.56,49.05,276,54.54,276,58.78Z" transform="translate(-15.23 0)"/><path class="cls-2" d="M366.59,77.78c0,10.52-8.17,21.35-17.27,23.86v.63s22,5.34,22,26.06c0,21.83-14.6,31.56-41,31.56h-27c-3.3,0-4.71-1.41-4.71-4.71V54.7c0-3.3,1.41-4.71,4.71-4.71h28.1C354.81,50,366.59,61.3,366.59,77.78ZM312.42,61.92V97.4h18.21c12.72,0,21.67-8.16,21.67-18.36,0-11.62-6.59-17.12-22.29-17.12Zm0,47.42V148h22.92c14,0,21.67-7.85,21.67-20.25,0-11.47-8.16-18.37-24.33-18.37Z" transform="translate(-15.23 0)"/><path class="cls-2" d="M449.48,101.49v35.16a91.31,91.31,0,0,0,1.89,19.79c0,3-6.44,3.61-8.48,3.61-3.77,0-4.55-6.6-5.5-11A34.58,34.58,0,0,1,411,160.83c-15.23,0-26.85-7.38-26.85-23.55,0-26.53,28.1-28.26,52.12-28.57v-7.38c0-7.07-4.23-13.19-17.27-13.19-14.28,0-22.92,6.6-24.49,6.6-2.2,0-5.49-6.13-5.49-7.85,0-4.09,13.81-10,29.51-10C438,76.84,449.48,85.94,449.48,101.49Zm-51.18,35c0,8.32,4.55,12.87,13.35,12.87,11.46,0,18.36-5.18,24.64-10.83V120C420,120.17,398.3,120.17,398.3,136.5Z" transform="translate(-15.23 0)"/><path class="cls-2" d="M537.72,102.27v54.48c0,2.2-1.89,3.45-6.28,3.45h-.63c-4.4,0-6.28-1.25-6.28-3.45V103.53c0-9.58-5.81-15.23-16-15.23-7.06,0-14.6,4.24-19.78,11v57.46c0,2.2-1.88,3.45-6.28,3.45h-.63c-4.39,0-6.28-1.25-6.28-3.45V101.64a91.73,91.73,0,0,0-1.88-19.78c0-3,6.44-3.61,8.48-3.61,3.77,0,4.55,6.28,5.49,10.36,6.6-7.38,15.7-11.77,24.5-11.77C528.14,76.84,537.72,86.41,537.72,102.27Z" transform="translate(-15.23 0)"/><path class="cls-2" d="M577.44,45.28v70.18h.62l30-35.8c1.41-1.72,4.87-2.19,8.32-2.19H617c3.77,0,5.49.94,5.49,2a5.29,5.29,0,0,1-1.57,3.14l-29.2,34.54,32.34,38.3c1.1,1.26,1.42,1.89,1.42,2.52,0,1.72-2,2.19-6.91,2.19h-.63c-3.45,0-6.91-.15-8.48-2L578.06,121h-.62v35.8c0,2.2-1.89,3.45-6.28,3.45h-.63c-4.4,0-6.28-1.25-6.28-3.45V45.28c0-2.2,1.88-3.45,6.28-3.45h.63C575.55,41.83,577.44,43.08,577.44,45.28Z" transform="translate(-15.23 0)"/></svg>